<?xml version="1.0" encoding="utf-8"?>
<!-- Generator: Adobe Illustrator 22.0.1, SVG Export Plug-In . SVG Version: 6.00 Build 0)  -->
<svg version="1.1" id="Layer_1" xmlns="http://www.w3.org/2000/svg" xmlns:xlink="http://www.w3.org/1999/xlink" x="0px" y="0px"
	 viewBox="0 0 566.9 566.9" style="enable-background:new 0 0 566.9 566.9;" xml:space="preserve">
<style type="text/css">
	.st0{stroke:#000000;stroke-width:5;stroke-miterlimit:10;}
	.st1{fill:none;stroke:#000000;stroke-width:5;stroke-miterlimit:10;}
	.st2{fill:url(#SVGID_1_);stroke:#000000;stroke-miterlimit:10;}
	.st3{opacity:0.85;}
	.st4{font-family:'ArialMT';}
	.st5{font-size:20.3692px;}
	.st6{letter-spacing:1.4;}
</style>
<polygon points="220.8,218.4 198.7,218.1 198.7,209.4 220.9,209.6 "/>
<path class="st0" d="M192.3,285.7c0.2-64.1-0.6-64.1-0.6-64.1"/>
<path class="st0" d="M370.5,222.3c-44.5-2.4-45.9-0.4-45.9-0.4"/>
<path class="st0" d="M231.6,220.3c-42.3-0.4-42.3-0.4-42.3-0.4"/>
<path class="st0" d="M246.1,190.6c-14.9,32.1-14.9,32.1-14.9,32.1"/>
<path class="st0" d="M312.2,189.6c14.7,32.2,14.7,32.2,14.7,32.2"/>
<path class="st0" d="M244.1,191.3c69-0.6,69-0.6,69-0.6"/>
<path class="st0" d="M368.4,288.6c0.3-68.3-0.7-66.2-0.7-66.2"/>
<path class="st1" d="M352.3,282.2c-46.7-0.9-142.5,1.1-142.8-0.7c-6.5-39.4,32.3-76.3,70.2-76c36.6,0.3,67.1,30.7,71.2,66.1
	C351.9,280.2,354.9,282.2,352.3,282.2z"/>
<ellipse transform="matrix(0.9968 -8.054901e-02 8.054901e-02 0.9968 -17.8626 29.371)" cx="355.1" cy="236.1" rx="6.4" ry="6.5"/>
<path class="st1" d="M335.8,280c-30.1-1.5-111,3.7-111.2-0.6c-1.5-31.8,24-60.8,54.5-60.6c28.5,0.2,58,27.7,57.4,57.2
	C336.5,278,337.8,280,335.8,280z"/>
<path class="st1" d="M303.4,280.6c-13.5-0.8-49.6,1.9-49.6-0.3c-0.6-16.1,10.3-30.7,23.9-30.6c12.8,0.1,24.9,14.1,26.2,28.9
	C303.8,279.6,304.2,280.6,303.4,280.6z"/>
<linearGradient id="SVGID_1_" gradientUnits="userSpaceOnUse" x1="425.6917" y1="238.3268" x2="425.6917" y2="238.3268" gradientTransform="matrix(1 -7.318964e-04 -7.318964e-04 -1 0.1827 567.1383)">
	<stop  offset="0" style="stop-color:#FFFFFF"/>
	<stop  offset="1" style="stop-color:#000000"/>
</linearGradient>
<path class="st2" d="M425.7,328.5"/>
<g class="st3">
	<g>
		<path d="M185.2,320.7c2.7-0.1,5.2-0.2,7.2-0.3c-0.3,1.3-0.7,5.2-1.1,8.5l-1.7,0.1c-0.4-5.7-1.4-6.3-5-6.1l-5.5,0.2
			c-1.9,0.1-2.3,0.2-2.7,2.3l-1.9,11.9l5.7-0.2c4.5-0.1,4.7-0.8,6.2-4.8l1.6-0.1l-1.9,11.5l-1.6,0.1c-0.1-4.3,0-4.8-4.7-4.6
			l-5.6,0.2l-1.6,9.9c-0.7,4-0.5,5.7,3.4,5.6l4.1-0.1c3.3-0.1,4.7-0.5,6.2-2c1.3-1.3,2.5-3.2,3.5-5.2l1.6,0.5
			c-0.5,1.5-2.2,6.8-2.9,8.5l-27.1,1l0.3-1.5c4.9-0.7,5.3-0.9,6-5.3l3.6-22.8c0.7-4.3,0.4-4.8-4.4-5l0.3-1.5L185.2,320.7z"/>
		<path d="M220.6,350.6c-2.6,3.6-6,5.7-7.6,5.8c-1.6,0.1-2.4-1.3-1.5-6.6l0.5-3.1c-3,4.8-8.1,9.9-12,10.1c-2.2,0.1-4.3-1.8-4.4-7
			c-0.1-4.9,1.9-11.1,6-14.7c2.3-2.2,6.6-4.2,9.1-4.3c1.3-0.1,3,0.1,4.1,0.6l1.6-9.6c0.4-2.2,0-2.4-2.1-2.5c-0.6,0-1.7-0.1-2.2,0
			l0.3-1.5c2.6-0.4,5.3-1.1,7-1.7c0.8-0.2,1.3-0.4,1.6-0.4c0.4,0,0.6,0.4,0.4,1.6c-2.2,11-4.4,22.5-5.9,32.9c-0.2,1.5,0,2.1,0.4,2.1
			c0.7,0,2-0.9,3.9-3.1L220.6,350.6z M210.9,345.6c1-1.6,1.9-3.2,2.4-6l1-4.8c-0.8-0.9-2.7-1.6-5.4-1.5c-6.4,0.2-8.8,9.4-8.6,15.1
			c0.1,3.1,1,4.6,2.5,4.6C205,353,208.2,349.8,210.9,345.6z"/>
		<path d="M235.3,350c-2.7,3.8-6.1,5.7-7.7,5.7c-1.4,0.1-2.1-1.3-1.2-5.8c0.7-3.7,2.1-9.7,3-14.1c0.1-1,0.1-1.5-0.2-1.5
			c-0.6,0-2.2,1.2-3.6,2.7l-0.7-1.4c2.5-2.9,6.2-5.5,8-5.5c1.4-0.1,1.5,1.8,0.7,6c-0.9,4-2.1,9.7-2.9,13.6c-0.4,1.5-0.3,2.1,0.1,2.1
			c0.5,0,2-0.9,3.9-2.9L235.3,350z M235.7,321c0.1,1.7-1.1,3.2-2.8,3.3c-1.4,0.1-2.4-0.9-2.5-2.4c-0.1-1.4,1-3.3,3-3.4
			C234.9,318.5,235.7,319.7,235.7,321z"/>
		<path d="M265.2,348.8c-2.8,4-6.2,5.9-7.7,5.9c-1.5,0.1-2.3-1.3-1.4-5.8c0.9-4,1.6-7.9,2.4-11.4c0.7-3.6,0.5-4.9-0.9-4.8
			c-1.9,0.1-6,3.3-9.6,9.2c-1,1.5-1.3,2.9-1.7,4.7c-0.4,2.2-1.1,5.2-1.5,7.4c-1.4,0.3-2.9,0.8-3.9,1.3l-0.4-0.4
			c1.3-6,2.7-12.9,3.9-19.1c0.3-1.7,0.1-2.2-0.4-2.2c-0.6,0-1.9,1.3-3.3,2.7l-0.8-1.4c2.4-3.3,5.3-5.4,7.1-5.5
			c1.6-0.1,2.2,1.8,1.1,6.7l-0.7,3.3c4.7-6.6,9.6-10.4,12.9-10.5c1.9-0.1,3.6,1.1,2.1,8.6c-0.6,3.1-1.5,7.4-2.2,10.8
			c-0.3,1.5-0.2,2.1,0.1,2.1c0.5,0,2.1-1,4-3.2L265.2,348.8z"/>
		<path d="M293.7,347.8c-2.6,3.8-5.9,5.8-7.5,5.9c-1.6,0.1-2.3-1.2-1.5-6.3l0.7-3.8c-1.9,3.5-4.7,6.3-6.4,7.7
			c-1.7,1.5-3.8,2.8-5.6,2.9c-1.9,0.1-3.6-2.2-3.8-6.7c-0.2-5.2,2-11.1,5.6-14.6c2.8-2.7,6.7-4.6,10.5-4.7c2.8-0.1,5.4,0.7,6.5,0.7
			c-0.9,3.5-2.5,12.2-3.4,18.6c-0.2,1.5-0.1,2.1,0.4,2.1c0.7,0,1.9-1,3.8-3.1L293.7,347.8z M283.4,343.6c1.2-1.6,2.5-4.4,3-6.8
			c0.4-2.1,0.9-4.1,1-5.5c-0.8-0.4-2.7-0.8-4.2-0.7c-6.5,0.2-9.3,8.8-9,15.9c0.1,2.2,0.7,3.8,1.9,3.7
			C277.7,350.1,280.1,348.2,283.4,343.6z"/>
		<path d="M328.4,317.1c-4.7,0.6-5.1,0.9-5.7,4.9l-3.6,23.3c-0.7,4.2-0.1,4.6,4.5,4.8l-0.2,1.5l-14.8,0.5l0.3-1.5
			c4.5-0.5,5-1,5.6-5.2l3.6-23.3c0.6-4.1,0.1-4.3-4.5-4.6l0.3-1.5l14.8-0.5L328.4,317.1z"/>
		<path d="M339.8,346c-2.7,3.8-6.2,5.9-7.9,6c-1.4,0.1-2.3-1-1.3-6.3c1.6-9.5,3.5-19.6,4.9-28.1c0.4-2.2,0.2-2.4-1.9-2.5
			c-0.6,0-1.6-0.1-2.1-0.1l0.3-1.5c2.4-0.4,5.2-1,6.7-1.6c1-0.4,1.3-0.5,1.6-0.5c0.4,0,0.5,0.5,0.3,1.8c-2.1,10.7-4.4,23.4-5.9,32.6
			c-0.3,1.5-0.2,2.1,0.2,2.1c0.5,0,2-0.9,3.9-3.1L339.8,346z"/>
		<path d="M342.5,331.5c1.6-2.6,4.7-5.7,6.6-5.7c2-0.1,2.8,3.5,3.3,8.3c0.6,4.7,1,9.6,1.3,13.1c2.4-3.8,7.6-11.9,7.4-15.8
			c-0.1-1.1-0.7-2.1-1-2.7c-0.3-0.7-0.3-1.2,0.1-1.8c0.5-0.7,1.6-1.5,2.5-1.5c1.3-0.1,2.1,1.1,2.2,2.9c0.1,1.5-0.4,3.8-1.7,6.4
			c-4.2,8.4-13,21.7-19.1,28.8l-5.7,1.7l-0.5-1.3c5.4-3.8,9.7-8.4,12.3-12.2c-0.2-4.4-1.2-12.4-1.9-17.3c-0.4-3.4-1-4.6-1.6-4.6
			c-0.6,0-2.1,1.3-3.3,3L342.5,331.5z"/>
		<path d="M375,350.4c-2.7,0.1-6.3-1.3-6.6-8c-0.2-5.2,1.8-11.3,6.1-14.7c2.4-1.8,5-3,7.4-3.2c3.2-0.1,5,1.8,5.1,4.3
			c0.2,5.5-7.9,8.4-14.1,9.7c0,0.7-0.1,1.8,0,2.4c0.1,3.2,1.1,6.3,4.6,6.1c2.5-0.1,5.4-1.8,8.1-4.6l0.9,1.3
			C382.1,349.1,377.8,350.3,375,350.4z M373.2,336.7c8-1.7,9.8-4.3,9.8-6.9c-0.1-1.8-1.2-2.9-3-2.8
			C378.3,327.1,374.4,328.5,373.2,336.7z"/>
		<path d="M405.5,326.7c0,1-0.7,2.2-1.6,2.7c-0.5,0.2-0.8,0.1-1.3-0.4c-1.6-1.6-3-2.4-4.2-2.4c-1.4,0.1-3,1.3-2.9,3.2
			c0.1,1.8,1.8,3.1,3.9,4.6c3.4,2.5,4.9,3.8,5,6.3c0.1,4.5-5.5,8.7-9.9,8.8c-2.7,0.1-5.3-1.6-5.3-3.5c-0.1-1.2,1.3-2.7,2.2-2.9
			c0.4-0.1,0.6,0.1,1,0.5c1.5,1.9,3.2,3.1,5,3c2.3-0.1,3.6-1.8,3.6-3.5c-0.1-1.3-0.7-2.7-3.4-4.7c-2.7-1.9-5-3.4-5-6.3
			c-0.1-1.6,0.5-3.5,2.7-5.5c1.7-1.7,4.2-2.9,6.2-2.9C403.4,323.8,405.4,325.1,405.5,326.7z"/>
	</g>
</g>
<text transform="matrix(0.6984 -4.677461e-04 7.997965e-04 1 211.6043 392.3168)" class="st4 st5 st6">&lt;PHOTOGRAPHY&gt;</text>
<path d="M445.5,302c-32.7-12.4-111.6-38-162.2-35.8c-1.1,0-2.1,0-3.2,0c-50.6-2.8-131.1,26.8-164.1,39.3c-1.4,0.5,0,0,12.7-3.1
	c35.9-8.9,112.2-19.6,148.5-17.3c0.5,0,0.9,0,1.4,0c1.2-0.1,2.3,0,3.5,0.1c0.5,0,1,0,1.5,0C309.8,283.3,399.8,291.5,445.5,302
	C446.9,302.3,446.8,302.5,445.5,302z"/>
</svg>
